<svg width="20" height="20" viewBox="0 0 20 20" fill="none" xmlns="http://www.w3.org/2000/svg">
    <path d="M12.357 10L13.5355 11.1785L15.8925 8.8215C17.1943 7.51971 17.1943 5.40916 15.8925 4.10742C14.5908 2.80567 12.4803 2.80567 11.1785 4.10742L8.8215 6.46443L10 7.64295L12.357 5.28592C13.0079 4.63505 14.0632 4.63505 14.714 5.28592C15.3649 5.9368 15.3649 6.99207 14.714 7.64295L12.357 10Z" fill="black" />
    <path d="M10 12.3571L11.1785 13.5356L8.82151 15.8926C7.51978 17.1944 5.40923 17.1944 4.10748 15.8926C2.80573 14.5909 2.80573 12.4804 4.10748 11.1786L6.4645 8.82153L7.64301 10L5.28599 12.3571C4.63511 13.0079 4.63511 14.0632 5.28599 14.7141C5.93686 15.3649 6.99214 15.3649 7.64301 14.7141L10 12.3571Z" fill="black" />
    <path d="M12.3571 8.82141C12.6825 8.49599 12.6825 7.96832 12.3571 7.64288C12.0316 7.31744 11.504 7.31744 11.1785 7.64288L7.64301 11.1784C7.31757 11.5038 7.31757 12.0315 7.64301 12.3569C7.96844 12.6823 8.49609 12.6823 8.82151 12.3569L12.3571 8.82141Z" fill="black" />
</svg>
    