<svg width="22" height="22" viewBox="0 0 22 22" fill="none" xmlns="http://www.w3.org/2000/svg">
<path d="M16.5 8.25C18.0188 8.25 19.25 7.01878 19.25 5.5C19.25 3.98122 18.0188 2.75 16.5 2.75C14.9812 2.75 13.75 3.98122 13.75 5.5C13.75 5.61503 13.7571 5.72842 13.7708 5.83974L7.40906 9.02061C6.91446 8.54347 6.2415 8.25 5.5 8.25C3.98122 8.25 2.75 9.48117 2.75 11C2.75 12.5188 3.98122 13.75 5.5 13.75C6.2415 13.75 6.91446 13.4565 7.40906 12.9794L13.7708 16.1603C13.7571 16.2716 13.75 16.385 13.75 16.5C13.75 18.0188 14.9812 19.25 16.5 19.25C18.0188 19.25 19.25 18.0188 19.25 16.5C19.25 14.9812 18.0188 13.75 16.5 13.75C15.7585 13.75 15.0856 14.0435 14.591 14.5206L8.22922 11.3397C8.24293 11.2284 8.25 11.115 8.25 11C8.25 10.885 8.24293 10.7716 8.22922 10.6603L14.591 7.47939C15.0856 7.95653 15.7585 8.25 16.5 8.25Z" fill="#1C71DA"/>
</svg>
