<svg width="11" height="13" viewBox="0 0 11 13" fill="none" xmlns="http://www.w3.org/2000/svg">
    <path fill-rule="evenodd" clip-rule="evenodd" d="M5.37345 4.67114L9.15852 3.91413C10.0821 3.72941 10.7469 2.91846 10.7469 1.97658C10.7469 0.729693 9.60619 -0.205496 8.38346 0.0390431L5.64999 0.585745C4.70809 0.774125 4.03009 1.60113 4.03009 2.56166V7.98596C3.63491 7.75739 3.17609 7.62654 2.68673 7.62654C1.20289 7.62654 0 8.82946 0 10.3133C0 11.7971 1.20289 13 2.68673 13C4.17054 13 5.37345 11.7971 5.37345 10.3133V4.67114ZM8.64696 1.35632L5.91342 1.90302C5.59948 1.96582 5.37345 2.24148 5.37345 2.56166V3.30117L8.89502 2.59685C9.19069 2.53772 9.40355 2.27811 9.40355 1.97658C9.40355 1.57742 9.03835 1.27803 8.64696 1.35632ZM4.03009 10.3133C4.03009 9.57133 3.42865 8.96991 2.68673 8.96991C1.94481 8.96991 1.34336 9.57133 1.34336 10.3133C1.34336 11.0552 1.94481 11.6566 2.68673 11.6566C3.42865 11.6566 4.03009 11.0552 4.03009 10.3133Z" fill="black" />
</svg>