<svg width="18" height="18" viewBox="0 0 18 18" fill="none" xmlns="http://www.w3.org/2000/svg">
<path fill-rule="evenodd" clip-rule="evenodd" d="M9 14.2042C10.6568 14.2042 12 12.8611 12 11.2042C12 9.5474 10.6568 8.20422 9 8.20422C7.34314 8.20422 6 9.5474 6 11.2042C6 12.8611 7.34314 14.2042 9 14.2042ZM9 12.7042C9.82845 12.7042 10.5 12.0327 10.5 11.2042C10.5 10.3758 9.82845 9.70422 9 9.70422C8.17155 9.70422 7.5 10.3758 7.5 11.2042C7.5 12.0327 8.17155 12.7042 9 12.7042Z" fill="white"/>
<path d="M9 6.78302C9.82845 6.78302 10.5 6.11145 10.5 5.28302C10.5 4.45459 9.82845 3.78302 9 3.78302C8.17155 3.78302 7.5 4.45459 7.5 5.28302C7.5 6.11145 8.17155 6.78302 9 6.78302Z" fill="white"/>
<path fill-rule="evenodd" clip-rule="evenodd" d="M5.25 0.75C4.00736 0.75 3 1.75736 3 3V15C3 16.2427 4.00736 17.25 5.25 17.25H12.75C13.9927 17.25 15 16.2427 15 15V3C15 1.75736 13.9927 0.75 12.75 0.75H5.25ZM12.75 2.25H5.25C4.83579 2.25 4.5 2.58579 4.5 3V15C4.5 15.4142 4.83579 15.75 5.25 15.75H12.75C13.1642 15.75 13.5 15.4142 13.5 15V3C13.5 2.58579 13.1642 2.25 12.75 2.25Z" fill="white"/>
</svg>
