<svg width="48" height="48" viewBox="0 0 48 48" fill="none" xmlns="http://www.w3.org/2000/svg">
<path d="M42 2H6C3.79086 2 2 3.79086 2 6V42C2 44.2091 3.79086 46 6 46H42C44.2091 46 46 44.2091 46 42V6C46 3.79086 44.2091 2 42 2Z" fill="#D0E8FF" stroke="#1C71DA" stroke-width="2"/>
<path d="M24 39C32.8366 39 40 31.8366 40 23C40 14.1634 32.8366 7 24 7C15.1634 7 8 14.1634 8 23C8 31.8366 15.1634 39 24 39Z" fill="#1C71DA"/>
<path d="M24 32C28.9706 32 33 27.9706 33 23C33 18.0294 28.9706 14 24 14C19.0294 14 15 18.0294 15 23C15 27.9706 19.0294 32 24 32Z" fill="#D0E8FF" stroke="#5CB0FF"/>
<path d="M22.1636 24.8364C15.5714 27.0338 3.70552 32.747 8.97924 38.0208C14.253 43.2946 19.9662 31.4286 22.1636 24.8364Z" fill="#5CB0FF" stroke="#1C71DA"/>
</svg>
