<svg width="116" height="24" viewBox="0 0 116 24" fill="none" xmlns="http://www.w3.org/2000/svg">
<path d="M21 1H3C1.89543 1 1 1.89543 1 3V21C1 22.1046 1.89543 23 3 23H21C22.1046 23 23 22.1046 23 21V3C23 1.89543 22.1046 1 21 1Z" fill="#D0E8FF" stroke="#1C71DA" stroke-width="2"/>
<path d="M12 19.5C16.4183 19.5 20 15.9183 20 11.5C20 7.08172 16.4183 3.5 12 3.5C7.58172 3.5 4 7.08172 4 11.5C4 15.9183 7.58172 19.5 12 19.5Z" fill="#1C71DA"/>
<path d="M12 16C14.4853 16 16.5 13.9853 16.5 11.5C16.5 9.01472 14.4853 7 12 7C9.51472 7 7.5 9.01472 7.5 11.5C7.5 13.9853 9.51472 16 12 16Z" fill="#D0E8FF" stroke="#5CB0FF"/>
<path d="M11.0818 12.4182C7.7857 13.5169 1.85276 16.3735 4.48962 19.0104C7.12648 21.6473 9.98308 15.7143 11.0818 12.4182Z" fill="#5CB0FF" stroke="#1C71DA"/>
<path d="M30.056 20.694V2.54396H42.068V19.264L30.056 20.694ZM43.586 21.486V2.25796H48.118V8.61596L50.45 8.35196V12.84L48.118 13.104V20.606L43.586 21.486ZM37.558 6.70196H34.566V15.876L37.558 15.546V6.70196ZM64.4523 14.886C64.4523 15.7367 64.3056 16.5213 64.0123 17.24C63.7336 17.9587 63.323 18.582 62.7803 19.11C62.2376 19.638 61.5703 20.0487 60.7783 20.342C60.001 20.6353 59.1063 20.782 58.0943 20.782C57.0823 20.782 56.1803 20.6353 55.3883 20.342C54.611 20.0487 53.951 19.638 53.4083 19.11C52.8656 18.582 52.4476 17.9587 52.1543 17.24C51.8756 16.5213 51.7363 15.7367 51.7363 14.886V8.15396C51.7363 7.30329 51.8756 6.51863 52.1543 5.79996C52.4476 5.08129 52.8656 4.45796 53.4083 3.92996C53.951 3.40196 54.611 2.99129 55.3883 2.69796C56.1803 2.38996 57.0823 2.23596 58.0943 2.23596C59.1063 2.23596 60.001 2.38996 60.7783 2.69796C61.5703 2.99129 62.2376 3.40196 62.7803 3.92996C63.323 4.45796 63.7336 5.08129 64.0123 5.79996C64.3056 6.51863 64.4523 7.30329 64.4523 8.15396V14.886ZM59.9423 8.32996C59.9423 7.69929 59.759 7.20063 59.3923 6.83396C59.0403 6.46729 58.6076 6.28396 58.0943 6.28396C57.581 6.28396 57.141 6.46729 56.7743 6.83396C56.4223 7.20063 56.2463 7.69929 56.2463 8.32996V14.71C56.2463 15.3407 56.4223 15.8393 56.7743 16.206C57.141 16.558 57.581 16.734 58.0943 16.734C58.6076 16.734 59.0403 16.558 59.3923 16.206C59.759 15.8393 59.9423 15.3407 59.9423 14.71V8.32996ZM66.0363 21.486V2.25796H70.5683V20.606L66.0363 21.486ZM74.2086 21.288V16.558L87.0566 15.832V15.392L74.2086 16.118V13.72L91.5886 12.664V17.526L78.7406 18.274V18.736L92.0066 17.988V21.288H74.2086ZM73.7906 9.69396V6.89996L76.3866 6.76796V5.09596H74.1206V2.25796H91.7206V5.09596H89.4546V6.01996L92.0506 5.86596V8.63796L73.7906 9.69396ZM72.7126 13.258V10.31L93.1286 9.14396V12.026L72.7126 13.258ZM84.9886 5.09596H80.8966V6.50396L84.9886 6.28396V5.09596ZM109.177 21.486V19.286L94.7669 20.914V9.71596L102.269 9.05596V6.48196H94.7669V2.54396H106.779V12.466L99.2769 13.192V16.316L109.177 15.326V2.25796H113.709V20.606L109.177 21.486Z" fill="black"/>
</svg>
